<mxfile host="app.diagrams.net" agent="Mozilla/5.0 (Windows NT 10.0; Win64; x64) AppleWebKit/537.36 (KHTML, like Gecko) Chrome/128.0.0.0 Safari/537.36 OPR/114.0.0.0" version="24.7.17">
  <diagram name="PÃ¡gina-1" id="xanjR8LObrZV1CNsJrTF">
    <mxGraphModel dx="1393" dy="763" grid="1" gridSize="10" guides="1" tooltips="1" connect="1" arrows="1" fold="1" page="1" pageScale="1" pageWidth="827" pageHeight="1169" math="0" shadow="0">
      <root>
        <mxCell id="0" />
        <mxCell id="1" parent="0" />
        <mxCell id="u4d_wj5NAfvbG-j4_bf7-1" value="&lt;p style=&quot;line-height: 120%; font-size: 30px;&quot;&gt;Programa para calculadora en Java PC&lt;/p&gt;" style="rounded=0;whiteSpace=wrap;html=1;" vertex="1" parent="1">
          <mxGeometry x="70" y="50" width="310" height="120" as="geometry" />
        </mxCell>
        <mxCell id="u4d_wj5NAfvbG-j4_bf7-2" value="Objetivos" style="swimlane;fontStyle=0;childLayout=stackLayout;horizontal=1;startSize=30;horizontalStack=0;resizeParent=1;resizeParentMax=0;resizeLast=0;collapsible=1;marginBottom=0;whiteSpace=wrap;html=1;" vertex="1" parent="1">
          <mxGeometry x="510" y="50" width="140" height="120" as="geometry" />
        </mxCell>
        <mxCell id="u4d_wj5NAfvbG-j4_bf7-3" value="Crear una interfaz" style="text;strokeColor=none;fillColor=none;align=left;verticalAlign=middle;spacingLeft=4;spacingRight=4;overflow=hidden;points=[[0,0.5],[1,0.5]];portConstraint=eastwest;rotatable=0;whiteSpace=wrap;html=1;" vertex="1" parent="u4d_wj5NAfvbG-j4_bf7-2">
          <mxGeometry y="30" width="140" height="30" as="geometry" />
        </mxCell>
        <mxCell id="u4d_wj5NAfvbG-j4_bf7-4" value="crear funciones de botones" style="text;strokeColor=none;fillColor=none;align=left;verticalAlign=middle;spacingLeft=4;spacingRight=4;overflow=hidden;points=[[0,0.5],[1,0.5]];portConstraint=eastwest;rotatable=0;whiteSpace=wrap;html=1;" vertex="1" parent="u4d_wj5NAfvbG-j4_bf7-2">
          <mxGeometry y="60" width="140" height="30" as="geometry" />
        </mxCell>
        <mxCell id="u4d_wj5NAfvbG-j4_bf7-5" value="conectar funciones con botones" style="text;strokeColor=none;fillColor=none;align=left;verticalAlign=middle;spacingLeft=4;spacingRight=4;overflow=hidden;points=[[0,0.5],[1,0.5]];portConstraint=eastwest;rotatable=0;whiteSpace=wrap;html=1;" vertex="1" parent="u4d_wj5NAfvbG-j4_bf7-2">
          <mxGeometry y="90" width="140" height="30" as="geometry" />
        </mxCell>
        <mxCell id="u4d_wj5NAfvbG-j4_bf7-14" style="edgeStyle=orthogonalEdgeStyle;rounded=0;orthogonalLoop=1;jettySize=auto;html=1;entryX=0.5;entryY=0;entryDx=0;entryDy=0;" edge="1" parent="1" source="u4d_wj5NAfvbG-j4_bf7-7" target="u4d_wj5NAfvbG-j4_bf7-8">
          <mxGeometry relative="1" as="geometry" />
        </mxCell>
        <mxCell id="u4d_wj5NAfvbG-j4_bf7-7" value="1.-&amp;nbsp;&lt;span style=&quot;background-color: initial;&quot;&gt;Abrir Calculadora&lt;/span&gt;" style="rounded=0;whiteSpace=wrap;html=1;" vertex="1" parent="1">
          <mxGeometry x="370" y="320" width="120" height="60" as="geometry" />
        </mxCell>
        <mxCell id="u4d_wj5NAfvbG-j4_bf7-15" style="edgeStyle=orthogonalEdgeStyle;rounded=0;orthogonalLoop=1;jettySize=auto;html=1;entryX=0.5;entryY=0;entryDx=0;entryDy=0;" edge="1" parent="1" source="u4d_wj5NAfvbG-j4_bf7-8" target="u4d_wj5NAfvbG-j4_bf7-9">
          <mxGeometry relative="1" as="geometry" />
        </mxCell>
        <mxCell id="u4d_wj5NAfvbG-j4_bf7-8" value="2.- Mostrar calculadora" style="rounded=0;whiteSpace=wrap;html=1;" vertex="1" parent="1">
          <mxGeometry x="370" y="430" width="120" height="60" as="geometry" />
        </mxCell>
        <mxCell id="u4d_wj5NAfvbG-j4_bf7-16" style="edgeStyle=orthogonalEdgeStyle;rounded=0;orthogonalLoop=1;jettySize=auto;html=1;entryX=0.5;entryY=0;entryDx=0;entryDy=0;" edge="1" parent="1" source="u4d_wj5NAfvbG-j4_bf7-9" target="u4d_wj5NAfvbG-j4_bf7-10">
          <mxGeometry relative="1" as="geometry" />
        </mxCell>
        <mxCell id="u4d_wj5NAfvbG-j4_bf7-9" value="3.- Calcular" style="rounded=0;whiteSpace=wrap;html=1;" vertex="1" parent="1">
          <mxGeometry x="370" y="540" width="120" height="60" as="geometry" />
        </mxCell>
        <mxCell id="u4d_wj5NAfvbG-j4_bf7-17" style="edgeStyle=orthogonalEdgeStyle;rounded=0;orthogonalLoop=1;jettySize=auto;html=1;entryX=0.5;entryY=0;entryDx=0;entryDy=0;" edge="1" parent="1" source="u4d_wj5NAfvbG-j4_bf7-10" target="u4d_wj5NAfvbG-j4_bf7-12">
          <mxGeometry relative="1" as="geometry" />
        </mxCell>
        <mxCell id="u4d_wj5NAfvbG-j4_bf7-10" value="4.- Mostrar resultado" style="rounded=0;whiteSpace=wrap;html=1;" vertex="1" parent="1">
          <mxGeometry x="370" y="640" width="120" height="60" as="geometry" />
        </mxCell>
        <mxCell id="u4d_wj5NAfvbG-j4_bf7-13" style="edgeStyle=orthogonalEdgeStyle;rounded=0;orthogonalLoop=1;jettySize=auto;html=1;entryX=0.5;entryY=0;entryDx=0;entryDy=0;" edge="1" parent="1" source="u4d_wj5NAfvbG-j4_bf7-11" target="u4d_wj5NAfvbG-j4_bf7-7">
          <mxGeometry relative="1" as="geometry" />
        </mxCell>
        <mxCell id="u4d_wj5NAfvbG-j4_bf7-11" value="Inicio" style="ellipse;whiteSpace=wrap;html=1;aspect=fixed;" vertex="1" parent="1">
          <mxGeometry x="390" y="200" width="80" height="80" as="geometry" />
        </mxCell>
        <mxCell id="u4d_wj5NAfvbG-j4_bf7-12" value="Fin" style="ellipse;whiteSpace=wrap;html=1;aspect=fixed;" vertex="1" parent="1">
          <mxGeometry x="390" y="760" width="80" height="80" as="geometry" />
        </mxCell>
      </root>
    </mxGraphModel>
  </diagram>
</mxfile>
